# xmcd
# Copyright (C) 1995-1998 Ti Kan
#
# Track frame offsets:
#       150
#       32526
#       56060
#       84420
#       103723
#       124553
#       146289
#       175287
#       200746
#       226843
#       279077
#       307574
#
# Disc length: 4501 seconds
#
# Revision: 0
# Processed by: cddbd v1.5.2PL0 Copyright (c) Steve Scherf et al.
# Submitted via: CD-Transfer v1.0
#
DISCID=9011930c
DTITLE=Mayer,John - Live At Webster Hall, Ny September 06
DYEAR=06
DGENRE=
TTITLE0=Belief
TTITLE1=Vultures
TTITLE2=Slow Dancing In A Burning Room
TTITLE3=Heart Of Live
TTITLE4=Bigger Than Body
TTITLE5=Good Love Is On The Way
TTITLE6=I Don't Trust Myself
TTITLE7=Dreaming With A Broken Heart
TTITLE8=Why Georgia
TTITLE9=Gravity
TTITLE10=No Such Thing
TTITLE11=Waiting On The Worl To Change
EXTD=
EXTT0=
EXTT1=
EXTT2=
EXTT3=
EXTT4=
EXTT5=
EXTT6=
EXTT7=
EXTT8=
EXTT9=
EXTT10=
EXTT11=
PLAYORDER=
